<svg xmlns="http://www.w3.org/2000/svg">
  <symbol id="auto" viewBox="-1 -1 20 23">
    <path d="M4.5 13.57c0-.4-.15-.73-.44-1-.3-.29-.64-.43-1.06-.43-.41 0-.77.14-1.06.42-.3.28-.44.62-.44 1.01 0 .4.15.73.44 1.01.3.28.65.42 1.06.42.42 0 .77-.14 1.06-.42.3-.28.44-.61.44-1zm12 0c0-.4-.15-.73-.44-1-.3-.29-.65-.43-1.06-.43-.42 0-.77.14-1.06.42-.3.28-.44.62-.44 1.01 0 .4.14.73.44 1.01.29.28.64.42 1.06.42.41 0 .76-.14 1.06-.42.29-.28.44-.61.44-1zm-.54-4.42l-.85-4.28a.74.74 0 00-.74-.58H3.63a.74.74 0 00-.74.58l-.84 4.28c-.04.22.02.42.17.6.14.16.33.25.57.25h12.44c.23 0 .42-.09.57-.26.15-.17.2-.37.17-.59zM13.3 2.32a.5.5 0 00-.16-.38.56.56 0 00-.4-.15h-7.5a.56.56 0 00-.4.15.5.5 0 00-.16.38c0 .15.05.28.16.38.11.1.24.16.4.16h7.5c.15 0 .29-.05.4-.16a.5.5 0 00.16-.38zm4.69 8.1v6.72h-1.5v1.43c0 .4-.15.73-.44 1.01-.3.28-.65.42-1.06.42-.42 0-.77-.14-1.06-.42-.3-.28-.44-.61-.44-1v-1.44h-9v1.43c0 .4-.15.73-.44 1.01-.3.28-.64.42-1.06.42-.41 0-.77-.14-1.06-.42-.3-.28-.44-.61-.44-1v-1.44H0v-6.73c0-.83.1-1.66.3-2.49l1.2-5.06c.07-.58.45-1.1 1.14-1.53.7-.44 1.6-.77 2.7-1C6.44.11 7.66 0 9 0c1.33 0 2.55.11 3.66.33 1.1.23 2 .56 2.7 1 .69.44 1.07.95 1.14 1.53l1.23 5.06c.18.76.27 1.6.27 2.5z"/>
  </symbol>
  <symbol id="bicycle" viewBox="0 2 15 13">
    <path d="M10.958 13.966a2.597 2.597 0 01-2.548-3.108 2.6 2.6 0 013.542-1.894 2.6 2.6 0 01-.994 5.002zm0-4.296a1.694 1.694 0 00-1.662 2.026 1.695 1.695 0 101.662-2.026zM3.502 13.966a2.597 2.597 0 01-2.548-3.108 2.6 2.6 0 013.542-1.894 2.599 2.599 0 01.843 4.24 2.6 2.6 0 01-1.837.762zm0-4.296a1.694 1.694 0 00-1.662 2.026A1.695 1.695 0 103.502 9.67zM9.038 4.25a.785.785 0 00.347-.08.907.907 0 00.294-.231c.084-.1.15-.217.195-.347.045-.13.068-.268.067-.408a1.21 1.21 0 00-.065-.406 1.077 1.077 0 00-.195-.345.896.896 0 00-.292-.23.788.788 0 00-.692.001.908.908 0 00-.294.23 1.09 1.09 0 00-.196.344 1.226 1.226 0 00-.003.813c.046.13.112.247.195.345a.91.91 0 00.293.232c.11.054.227.082.346.082z"/>
    <path d="M10.38 6.375H9.146a.1.1 0 01-.058-.018.126.126 0 01-.042-.051L8.15 4.375a1.001 1.001 0 00-.266-.362.81.81 0 00-.376-.182.751.751 0 00-.405.037.865.865 0 00-.348.25L4.781 6.454c-.165.199-.26.465-.262.744 0 .577.356.783.522.9.805.545 1.372.943 1.683 1.165.016.012.03.028.04.048.01.02.014.042.014.065v2.295c0 .286.187.531.43.545a.391.391 0 00.18-.032.45.45 0 00.154-.113.54.54 0 00.103-.175.612.612 0 00.037-.21V8.833a.608.608 0 00-.05-.242.517.517 0 00-.138-.19l-1.045-.883a.128.128 0 01-.032-.042.15.15 0 01-.01-.11.139.139 0 01.026-.047L7.619 5.83a.113.113 0 01.044-.035.097.097 0 01.052-.007c.018.003.035.01.05.022a.127.127 0 01.035.046l.616 1.307c.04.083.097.152.166.2.07.048.149.074.23.074h1.581a.395.395 0 00.178-.043.459.459 0 00.15-.122.554.554 0 00.096-.181.62.62 0 00.028-.211c-.012-.286-.221-.506-.465-.506z"/>
  </symbol>
  <symbol id="plane" viewBox="-2 -2 24 27">
    <path d="M17.53.18c-.8.18-1.6.36-1.9.86L13.28 5.4.8 8.21l-.5 1.4 9.56.85-1.62 3.8-3.62.8-.91 1.5 2.61.26.3 1.22c.13.43.6.72 1 .63l1.21-.27 1.4 2.25.91-1.49-.9-3.65 2.63-3.16 5.01 8.3 1.01-1.08L15.8 6.99l2.83-4.06c.3-.5.1-1.3-.1-2.12-.1-.4-.6-.72-1-.63z"/>
  </symbol>
  <symbol id="run" viewBox="0 0 15 17">
    <path d="M9.56128 4.24996C10.1663 4.24996 10.6567 3.6157 10.6567 2.83329C10.6567 2.05089 10.1663 1.41663 9.56128 1.41663C8.95628 1.41663 8.46582 2.05089 8.46582 2.83329C8.46582 3.6157 8.95628 4.24996 9.56128 4.24996Z"/>
    <path d="M8.89155 7.76969C9.01729 8.01199 9.19764 8.19839 9.40812 8.30356C9.6186 8.40874 9.84901 8.42761 10.0681 8.3576L11.8843 7.77039L11.6198 6.39623L9.80352 6.98344L9.0482 5.51931C8.88682 5.20663 8.63637 4.98917 8.35148 4.91439L6.24491 4.36898C6.00924 4.30781 5.76456 4.34869 5.54865 4.48529C5.33274 4.62189 5.15761 4.84662 5.05031 5.12477L4.14217 7.4736L5.12206 8.10756L6.0302 5.75802L7.10759 6.0371L4.32183 12.0416H1.89319V13.4583H4.32183C4.70414 13.4583 5.064 13.1948 5.26119 12.7705L6.31173 10.5067L9.14295 11.2391L10.1376 15.0988L11.1761 14.6504L10.182 10.7914C10.1206 10.5545 10.0121 10.3427 9.86728 10.1773C9.72246 10.0119 9.5465 9.89879 9.35712 9.84935L7.69256 9.41939L8.66314 7.32698L8.89155 7.76969Z"/>
  </symbol>
  <symbol id="check" viewBox="0 0 11 12">
    <path d="M3.38679 11.1809L0 7.5V7V6C0 6.04093 0 5.95907 0 6C0 5.78516 6.95735e-05 5.5 6.95735e-05 5.5V4.5L3.37736 7.75615C3.49314 7.87756 3.68161 7.87614 3.79738 7.75474L11.0001 0V2.07271V3C11.0001 3.5 11.0001 3.5 11.0001 3.5L4.80839 10.1208L4.80974 10.1222L3.80681 11.1795C3.69103 11.3009 3.50256 11.3009 3.38679 11.1809Z"/>
  </symbol>
  <symbol id="past" viewBox="0 0 17 29">
    <path d="M15.85.6a1.85 1.85 0 00-2.62 0L.92 13a1.49 1.49 0 000 2.1l12.3 12.4c.73.73 1.9.73 2.63 0 .72-.73.12-1.5-.6-2.23l-6.49-6.5L4.2 14 15.86 2s.71-.69-.01-1.4z"/>
  </symbol>
  <symbol id="next" viewBox="0 0 17 29">
    <path d="M.97 29.11a1.85 1.85 0 001.3.57 1.79 1.79 0 001.32-.57l12.3-12.81a1.54 1.54 0 00.44-1.09 1.59 1.59 0 00-.43-1.08L3.59 1.3a1.8 1.8 0 00-2.62 0c-.73.76.44 2.07 1.17 2.82l10.6 11.08L1.57 26.87c-.71.74-1.33 1.5-.6 2.24z"/>
  </symbol>
  <symbol id="cross" viewBox="0 0 9 9">
    <path d="M7.875 1.125l-6.75 6.75M1.125 1.125l6.75 6.75" stroke-linecap="round" stroke-linejoin="round"/>
  </symbol>
  <symbol id="arrow" viewBox="0 0 8 11">
    <path d="M3.65 10.35c.2.2.5.2.7 0l3.19-3.18a.5.5 0 10-.71-.7L4 9.28 1.17 6.46a.5.5 0 10-.7.71l3.18 3.18zM3.5 0v10h1V0h-1z"/>
  </symbol>
  <symbol id="filter-icon" viewBox="0 0 23 15">
    <path d="M11 0h12v3H11zM11 12h12v3H11zM0 6h12v3H0zM6 0h3v3H6zM6 12h3v3H6zM14 6h3v3h-3zM0 0h4v3H0zM0 12h4v3H0zM19 6h4v3h-4z"/>
  </symbol>
  <symbol id="close" viewBox="0 0 24 22">
    <path d="M21 2.75L3 19.25M3 2.75l18 16.5" stroke-width="2" stroke-linecap="round" stroke-linejoin="round"/>
  </symbol>
  <symbol id="heart" viewBox="0 0 12 12">
    <path d="M6 4.66l.67-1.4c.17-.35.46-.86.86-1.26.4-.4.89-.67 1.47-.67a2.28 2.28 0 012.25 2.3c0 .95-.42 1.63-1.4 2.65-.25.27-.54.55-.86.86-.83.82-1.87 1.84-2.99 3.2a40.57 40.57 0 00-2.99-3.2l-.86-.86C1.17 5.26.75 4.58.75 3.63c0-1.26 1-2.3 2.25-2.3.58 0 1.06.27 1.47.67.4.4.7.9.86 1.26L6 4.66zm.3 6.54a.39.39 0 01-.3.14.37.37 0 01-.3-.14 37.64 37.64 0 00-3.18-3.45C.98 6.22 0 5.25 0 3.63 0 1.93 1.34.54 3 .54c1.2 0 2.04.83 2.55 1.58.2.29.35.57.45.78.13-.27.28-.53.45-.78C6.96 1.37 7.8.54 9 .54c1.66 0 3 1.38 3 3.09 0 1.63-.97 2.59-2.52 4.12-.9.88-1.99 1.95-3.19 3.45z"/>
  </symbol>
  <symbol id="business" viewBox="0 0 28 28">
    <path d="M23.38 23.24V19.9a5.85 5.85 0 00-2.81-5.09c-.94-.67-2.95-.8-3.9-.8l-2.13 2.28.8 1.74v4.02L14 23.5l-1.34-1.47v-4.02l.94-1.74L11.32 14c-1.07 0-3.08.13-4.02.8a5.53 5.53 0 00-2 2.28 5.15 5.15 0 00-.68 2.81v3.35s3.49 1.48 9.38 1.48c5.9 0 9.38-1.48 9.38-1.48zM14 3.42c-2.54 0-4.02 2.41-3.62 5.09.4 2.68 1.74 4.55 3.62 4.55 1.88 0 3.21-1.87 3.62-4.55.4-2.81-1.08-5.1-3.62-5.1z"/>
  </symbol>
  <symbol id="tomain" viewBox="0 0 32 16">
    <path fill-rule="evenodd" clip-rule="evenodd" d="M4 16h24a4 4 0 004-4V7a4 4 0 00-4-4H4v2h24a2 2 0 012 2v5a2 2 0 01-2 2H4v2z"/>
    <path d="M0 4L9 .54v6.92L0 4z"/>
  </symbol>
  <symbol id="level-icon" viewBox="0 0 100 100">
    <circle stroke-width="0" cx="35" cy="35" r="30" fill="none"></circle>
    <path fill="none" d="M35 6.5 a 25 25 0 0 1 0 57 a 25 25 0 0 1 0 -57"></path>
  </symbol>
  <symbol id="burger" viewBox="0 0 25 11">
    <rect width="25" height="3" rx="1.5"/>
    <rect y="8" width="25" height="3" rx="1.5"/>
  </symbol>
  <symbol id="handset" viewBox="0 0 19 19">
    <path d="M9.77429 8.22389C9.77429 8.41289 9.92792 8.56139 10.1157 8.56139C10.5048 8.56139 10.8189 8.87526 10.8189 9.25664C10.8189 9.44226 10.9725 9.59414 11.1603 9.59414C11.348 9.59414 11.5017 9.44226 11.5017 9.25664C11.5017 8.50064 10.8804 7.88639 10.1157 7.88639C9.92792 7.88639 9.77429 8.03827 9.77429 8.22389ZM15.332 9.59414C15.5231 9.59414 15.6733 9.44226 15.6733 9.25664C15.6733 6.22589 13.1813 3.76215 10.1157 3.76215C9.92792 3.76215 9.77429 3.914 9.77429 4.09965C9.77429 4.28527 9.92792 4.43715 10.1157 4.43715C12.8057 4.43715 14.9906 6.60051 14.9906 9.25664C14.9906 9.44226 15.1442 9.59414 15.332 9.59414Z"/>
    <path d="M12.9047 9.25661C12.9047 9.44223 13.0583 9.59411 13.2461 9.59411C13.4339 9.59411 13.5875 9.44223 13.5875 9.25661C13.5875 7.36324 12.0308 5.82424 10.1157 5.82424C9.9279 5.82424 9.77427 5.97612 9.77427 6.16174C9.77427 6.35074 9.9279 6.49924 10.1157 6.49924C11.6553 6.49924 12.9047 7.73786 12.9047 9.25661ZM10.1157 1.69998C9.9279 1.69998 9.77427 1.85186 9.77427 2.03748C9.77427 2.22312 9.9279 2.37498 10.1157 2.37498C13.9562 2.37498 17.0798 5.46312 17.0798 9.25661C17.0798 9.44223 17.23 9.59411 17.4212 9.59411C17.6089 9.59411 17.7626 9.44223 17.7626 9.25661C17.7626 5.0885 14.3317 1.69998 10.1157 1.69998ZM13.4509 12.8139L13.0037 13.0535C12.2493 13.4619 11.6622 14.5812 10.7312 13.7375L8.30011 11.3L6.20004 9.25661C5.14495 7.92348 6.32635 7.60623 6.73941 6.85699L6.98179 6.41825C7.25489 5.91873 7.35388 5.35849 7.27196 4.79823C7.19345 4.23799 6.93741 3.72836 6.52775 3.32336C6.02935 2.83062 5.36707 2.56062 4.66042 2.56062C3.95376 2.56062 3.28807 2.83062 2.78964 3.32336L2.61556 3.49886C1.69383 4.41012 1.588 5.97948 2.31514 7.92348C3.0013 9.77973 4.3839 11.7912 6.20004 13.5867C8.96862 16.3239 12.0513 17.9 14.2634 17.9C15.1373 17.9 15.8781 17.6536 16.4039 17.1339L16.5814 16.9584C17.0764 16.469 17.3529 15.8142 17.3563 15.1089C17.3529 14.4204 17.0695 13.7454 16.5814 13.2627C15.7587 12.4494 14.4717 12.2671 13.4509 12.8139Z"/>
  </symbol>
  <symbol id="envelop" viewBox="0 0 17 14">
    <path d="M1.0166 2.32528L7.7666 6.55572C7.9934 6.69747 8.2868 6.76467 8.582 6.76467C8.8772 6.76467 9.1706 6.69747 9.3974 6.55572L16.1474 2.32528C16.5875 2.04913 17.0033 0.974976 16.196 0.974976H0.968901C0.161601 0.974976 0.577401 2.04913 1.0166 2.32528ZM16.3517 4.63842L9.3974 8.86677C9.0914 9.05367 8.8772 9.07572 8.582 9.07572C8.2868 9.07572 8.0726 9.05367 7.7666 8.86677C7.4606 8.67987 1.3469 4.94082 0.847401 4.63737C0.496401 4.42317 0.500001 4.67412 0.500001 4.86732V12.525C0.500001 12.966 1.0094 13.575 1.4 13.575H15.8C16.1906 13.575 16.7 12.966 16.7 12.525V4.86837C16.7 4.67517 16.7036 4.42422 16.3517 4.63842Z"/>
  </symbol>
  <symbol id="phone" viewBox="0 0 17 15">
    <path fill-rule="evenodd" clip-rule="evenodd" d="M8.49995 0.0861511C5.7035 0.0861511 2.90033 0.558819 1.88322 1.50093C1.03934 2.28252 0.758038 3.66329 0.663214 4.53753C0.663214 4.53753 0.650146 4.62393 0.650146 4.66109C0.650146 5.00391 0.944447 5.27887 1.30427 5.27887C1.34678 5.27887 2.92002 5.15837 3.86851 5.08425C3.89134 5.08112 3.91434 5.07806 3.93716 5.07191C4.29043 5.0627 4.57505 4.7908 4.57505 4.45413L4.57822 3.237C4.57822 2.86014 4.90214 2.55737 5.3012 2.55737H11.6987C12.0978 2.55737 12.4218 2.86011 12.4218 3.237L12.425 4.45413C12.425 4.7908 12.7095 5.0627 13.0628 5.07191C13.0854 5.0781 13.1085 5.08112 13.1315 5.08425C14.0801 5.15834 15.6533 5.27887 15.6957 5.27887C16.0553 5.27887 16.3499 5.00391 16.3499 4.66109C16.3499 4.62393 16.3368 4.53753 16.3368 4.53753C16.2419 3.66329 15.9609 2.28255 15.117 1.50093C14.0996 0.558819 11.2964 0.0861511 8.49995 0.0861511ZM8.49995 8.11773C7.7771 8.11773 7.19164 8.67064 7.19164 9.35333C7.19164 10.036 7.7771 10.5889 8.49995 10.5889C9.22279 10.5889 9.80823 10.036 9.80823 9.35333C9.80823 8.67064 9.22279 8.11773 8.49995 8.11773ZM7.51873 5.33752V4.56528C7.51873 4.13902 7.15236 3.79304 6.70106 3.79304C6.24977 3.79304 5.8834 4.13905 5.8834 4.56528V5.33752L1.47095 9.7889C1.16689 10.07 0.977135 10.4622 0.977135 10.8948V12.1335C0.977135 12.8162 1.56264 13.3691 2.28545 13.3691H2.61254V14.1414C2.61254 14.5677 2.97895 14.9136 3.43025 14.9136C3.88154 14.9136 4.24792 14.5677 4.24792 14.1414V13.3691H12.752V14.1414C12.752 14.5677 13.1182 14.9136 13.5697 14.9136C14.021 14.9136 14.3873 14.5677 14.3873 14.1414V13.3691H14.7144C15.4373 13.3691 16.0227 12.8162 16.0227 12.1335V10.8948C16.0227 10.4622 15.833 10.07 15.5289 9.7889L11.1166 5.33752V4.56528C11.1166 4.13902 10.7502 3.79304 10.2989 3.79304C9.84757 3.79304 9.48124 4.13905 9.48124 4.56528V5.33752H7.51873ZM8.49995 6.8821C9.94564 6.8821 11.1166 7.98799 11.1166 9.35333C11.1166 10.7187 9.94567 11.8247 8.49995 11.8247C7.05426 11.8247 5.88336 10.7187 5.88336 9.35333C5.88336 7.98795 7.05426 6.8821 8.49995 6.8821Z"/>
  </symbol>
  <symbol id="mail" viewBox="0 0 19 13">
    <path fill-rule="evenodd" clip-rule="evenodd" d="M16.1393 10.4663L11.8089 6.5L16.1393 2.53365L15.5488 1.90264L9.24997 7.67188L2.95117 1.90264L2.36066 2.53365L6.69108 6.5L2.36066 10.4663L2.95117 11.0974L7.33081 7.08594L9.24997 8.84375L11.1691 7.08594L15.5488 11.0974L16.1393 10.4663ZM1.57593 0.25C0.76692 0.25 0.111084 0.948839 0.111084 1.80786V11.1921C0.111084 12.0525 0.7616 12.75 1.57593 12.75H16.924C17.733 12.75 18.3889 12.0512 18.3889 11.1921V1.80786C18.3889 0.947478 17.7383 0.25 16.924 0.25H1.57593Z"/>
  </symbol>
  <symbol id="face-book" viewBox="0 0 11 21">
    <path d="M7.49 20.81H2.13v-9.67H0V6.35h2.07c-.16-2.17.23-3.75 1.2-4.83A4.88 4.88 0 016.86 0h3.75v4.61H7.67a4.7 4.7 0 00-.2 1.74h3.15v4.79H7.46l.02 9.67zM3.32 19.7h2.97V10h3.14V7.5H6.29v-.57c0-1.5 0-2.84.78-3.34l.15-.1h2.2V1.12H6.9a3.82 3.82 0 00-2.74 1.13c-.79.92-1.11 2.47-.87 4.6l.08.63h-2.2V10h2.15v9.68z"/>
  </symbol>
  <symbol id="vkontakte" viewBox="0 0 23 12">
    <path d="M17.77 11.83a2.98 2.98 0 01-1.55-.47 7.57 7.57 0 01-1.32-1.15c-.32-.33-.87-.88-1.07-.88-.21 0-.36.69-.35 1.18 0 .33-.12.66-.35.9-.26.22-.57.35-.9.38H10.8c-2.05-.05-4-.85-5.51-2.25C2.56 7 .2 2.18.12 1.97a1.01 1.01 0 01.1-1.1C.52.61.88.48 1.25.5h3.12c.24.04.48.13.7.26.2.14.36.33.46.55.32.7.7 1.36 1.1 2 .97 1.5 1.4 1.85 1.56 1.92.17-.7.22-1.43.14-2.15.03-.33-.03-.66-.15-.96a.98.98 0 00-.58-.22l-.54-.51c-.1-.5.44-.93.82-1.1A6.38 6.38 0 0110.2.02h.52c.54-.01 1.07.04 1.6.15 1.26.27 1.21 1.3 1.16 2.49 0 .34-.03.75-.03 1.21v.36c-.03.33-.01.66.06.98a6.8 6.8 0 001.54-1.86c.43-.67.8-1.38 1.13-2.1a1.18 1.18 0 011.18-.72h3.46c.74 0 1.18.22 1.36.64.18.42.12 1.25-1.75 3.46l-.74.85a5.5 5.5 0 00-.92 1.19c.28.32.6.6.95.85.85.65 1.6 1.43 2.22 2.3a1.2 1.2 0 01.2 1.27 1.71 1.71 0 01-1.4.75l-2.81.03-.17-.03zM13.83 8.2c.66 0 1.24.6 1.86 1.22.33.37.7.7 1.11.97.31.21.67.32 1.04.32h.07l2.82-.04c.14 0 .28-.04.4-.1l-.07-.12a9.86 9.86 0 00-1.99-2.04c-.88-.75-1.33-1.1-1.39-1.68-.05-.58.37-1.08 1.2-2.04l.74-.83a8.05 8.05 0 001.52-2.21 4.16 4.16 0 00-.5 0H17.4a.4.4 0 00-.18 0c-.34.8-.75 1.56-1.22 2.29-1.4 2.11-2.06 2.4-2.53 2.4a.88.88 0 01-.41-.1c-.75-.44-.75-1.39-.7-2.08v-.32c0-.49 0-.9.03-1.27.06-1.26 0-1.27-.28-1.33-.45-.1-.91-.14-1.38-.12h-.5c-.48-.01-.95.01-1.42.07.07.05.13.12.19.19.3.49.46 1.06.43 1.63.1 1.24.05 2.85-.74 3.24-.14.07-.29.1-.44.1-.7 0-1.38-.66-2.54-2.44-.45-.69-.85-1.4-1.2-2.14l-.05-.08a.9.9 0 00-.24-.08H1.2c.44.92 2.51 4.97 4.84 7.09 1.3 1.2 2.99 1.9 4.76 1.97h1.37a.74.74 0 00.2-.07v-.07c0-.2 0-1.95 1.17-2.25.1-.04.19-.06.29-.08z"/>
  </symbol>
  <symbol id="instagram" viewBox="0 0 18 18">
    <path d="M12.96 1.8a3.25 3.25 0 013.24 3.24v7.92a3.25 3.25 0 01-3.24 3.24H5.04a3.25 3.25 0 01-3.23-3.24V5.04A3.25 3.25 0 015.04 1.8h7.92zm0-1.08H5.04A4.32 4.32 0 00.72 5.04v7.92a4.32 4.32 0 004.32 4.32h7.92a4.32 4.32 0 004.32-4.32V5.04A4.32 4.32 0 0012.96.72z"/>
    <path d="M9 5.82a3.19 3.19 0 110 6.38 3.19 3.19 0 010-6.38zm0-1.08a4.27 4.27 0 100 8.54 4.27 4.27 0 000-8.54zM13.43 5.56a.96.96 0 100-1.93.96.96 0 000 1.93z"/>
  </symbol>
  <symbol id="mark" viewBox="0 0 45 45">
    <circle cx="22.5" cy="22.5" r="22.5" fill="#121936"/>
    <path d="M22.5 12C18.1517 12 14.625 15.5267 14.625 19.875C14.625 24.9334 18.4285 27.1449 19.2692 28.1538C21.2885 30.5769 21.4026 33 22.5 33C23.5974 33 23.7115 30.5769 25.7308 28.1538C26.5715 27.1449 30.375 24.9334 30.375 19.875C30.375 15.5267 26.8483 12 22.5 12ZM22.5 25.125C19.6007 25.125 17.25 22.7743 17.25 19.875C17.25 16.9757 19.6007 14.625 22.5 14.625C25.3993 14.625 27.75 16.9757 27.75 19.875C27.75 22.7743 25.3993 25.125 22.5 25.125ZM22.5 17.25C21.051 17.25 19.875 18.426 19.875 19.875C19.875 21.324 21.051 22.5 22.5 22.5C23.949 22.5 25.125 21.324 25.125 19.875C25.125 18.426 23.949 17.25 22.5 17.25Z" fill="#FFD74B"/>
    <ellipse cx="22.5" cy="19.875" rx="0.875001" ry="0.875" fill="#161C35"/>
  </symbol>
  <symbol id="html-academy" viewBox="10 10 40 39">
    <path d="M30.2 5h-.2l-19.7 2.1v36.2l19.7 11.7 19.7-11.7v-36.2l-19.5-2.1zm17 36.8l-17.2 10.2-17.2-10.2v-14.8l17.1 10.2v1.8l-11.7-7v1.8l11.8 7.1v1.9l-11.8-7v1.8l11.8 7 11.9-7.1v-7.6l5.3-3.2v15.1zm-.1-17l-4.7 2.8-2.2 1.3-10.3-6.1v1.8l8.8 5.3h-.1l-.2.1-1.3.7-7.3-4.3v1.8l5.8 3.4-1.4.9-4.3-2.6v1.8l2.9 1.7-2.9 1.7-17-10.1 17-10.2 17.2 10zm.1-1.8l-17.3-10.2-17.1 10.2v-13.6l17.2-1.8 17.2 1.8v13.6z"/>
  </symbol>
  <symbol id="btn-new" viewBox="0 0 14 14">
    <path stroke-width="2" d="M7 0v14M0 7h14"/>
  </symbol>
  <symbol id="ellipsis" viewBox="0 0 17 3">
    <circle cx="1.5" cy="1.5" r="1.5"/>
    <circle cx="8.5" cy="1.5" r="1.5"/>
    <circle cx="15.5" cy="1.5" r="1.5"/>
  </symbol>
  <symbol id="ellipsis-big" viewBox="0 0 30 6">
    <circle cx="3" cy="3" r="3"></circle>
    <circle cx="15" cy="3" r="3"></circle>
    <circle cx="27" cy="3" r="3"></circle>
  </symbol>
</svg>
