<svg xmlns="http://www.w3.org/2000/svg">
  <symbol id="auto" viewBox="-1 -1 20 23">
    <path d="M4.5 13.57c0-.4-.15-.73-.44-1-.3-.29-.64-.43-1.06-.43-.41 0-.77.14-1.06.42-.3.28-.44.62-.44 1.01 0 .4.15.73.44 1.01.3.28.65.42 1.06.42.42 0 .77-.14 1.06-.42.3-.28.44-.61.44-1zm12 0c0-.4-.15-.73-.44-1-.3-.29-.65-.43-1.06-.43-.42 0-.77.14-1.06.42-.3.28-.44.62-.44 1.01 0 .4.14.73.44 1.01.29.28.64.42 1.06.42.41 0 .76-.14 1.06-.42.29-.28.44-.61.44-1zm-.54-4.42l-.85-4.28a.74.74 0 00-.74-.58H3.63a.74.74 0 00-.74.58l-.84 4.28c-.04.22.02.42.17.6.14.16.33.25.57.25h12.44c.23 0 .42-.09.57-.26.15-.17.2-.37.17-.59zM13.3 2.32a.5.5 0 00-.16-.38.56.56 0 00-.4-.15h-7.5a.56.56 0 00-.4.15.5.5 0 00-.16.38c0 .15.05.28.16.38.11.1.24.16.4.16h7.5c.15 0 .29-.05.4-.16a.5.5 0 00.16-.38zm4.69 8.1v6.72h-1.5v1.43c0 .4-.15.73-.44 1.01-.3.28-.65.42-1.06.42-.42 0-.77-.14-1.06-.42-.3-.28-.44-.61-.44-1v-1.44h-9v1.43c0 .4-.15.73-.44 1.01-.3.28-.64.42-1.06.42-.41 0-.77-.14-1.06-.42-.3-.28-.44-.61-.44-1v-1.44H0v-6.73c0-.83.1-1.66.3-2.49l1.2-5.06c.07-.58.45-1.1 1.14-1.53.7-.44 1.6-.77 2.7-1C6.44.11 7.66 0 9 0c1.33 0 2.55.11 3.66.33 1.1.23 2 .56 2.7 1 .69.44 1.07.95 1.14 1.53l1.23 5.06c.18.76.27 1.6.27 2.5z"/>
  </symbol>
  <symbol id="bicycle" viewBox="0 2 15 13">
    <path d="M10.958 13.966a2.597 2.597 0 01-2.548-3.108 2.6 2.6 0 013.542-1.894 2.6 2.6 0 01-.994 5.002zm0-4.296a1.694 1.694 0 00-1.662 2.026 1.695 1.695 0 101.662-2.026zM3.502 13.966a2.597 2.597 0 01-2.548-3.108 2.6 2.6 0 013.542-1.894 2.599 2.599 0 01.843 4.24 2.6 2.6 0 01-1.837.762zm0-4.296a1.694 1.694 0 00-1.662 2.026A1.695 1.695 0 103.502 9.67zM9.038 4.25a.785.785 0 00.347-.08.907.907 0 00.294-.231c.084-.1.15-.217.195-.347.045-.13.068-.268.067-.408a1.21 1.21 0 00-.065-.406 1.077 1.077 0 00-.195-.345.896.896 0 00-.292-.23.788.788 0 00-.692.001.908.908 0 00-.294.23 1.09 1.09 0 00-.196.344 1.226 1.226 0 00-.003.813c.046.13.112.247.195.345a.91.91 0 00.293.232c.11.054.227.082.346.082z"/>
    <path d="M10.38 6.375H9.146a.1.1 0 01-.058-.018.126.126 0 01-.042-.051L8.15 4.375a1.001 1.001 0 00-.266-.362.81.81 0 00-.376-.182.751.751 0 00-.405.037.865.865 0 00-.348.25L4.781 6.454c-.165.199-.26.465-.262.744 0 .577.356.783.522.9.805.545 1.372.943 1.683 1.165.016.012.03.028.04.048.01.02.014.042.014.065v2.295c0 .286.187.531.43.545a.391.391 0 00.18-.032.45.45 0 00.154-.113.54.54 0 00.103-.175.612.612 0 00.037-.21V8.833a.608.608 0 00-.05-.242.517.517 0 00-.138-.19l-1.045-.883a.128.128 0 01-.032-.042.15.15 0 01-.01-.11.139.139 0 01.026-.047L7.619 5.83a.113.113 0 01.044-.035.097.097 0 01.052-.007c.018.003.035.01.05.022a.127.127 0 01.035.046l.616 1.307c.04.083.097.152.166.2.07.048.149.074.23.074h1.581a.395.395 0 00.178-.043.459.459 0 00.15-.122.554.554 0 00.096-.181.62.62 0 00.028-.211c-.012-.286-.221-.506-.465-.506z"/>
  </symbol>
  <symbol id="plane" viewBox="-2 -2 24 27">
    <path d="M17.53.18c-.8.18-1.6.36-1.9.86L13.28 5.4.8 8.21l-.5 1.4 9.56.85-1.62 3.8-3.62.8-.91 1.5 2.61.26.3 1.22c.13.43.6.72 1 .63l1.21-.27 1.4 2.25.91-1.49-.9-3.65 2.63-3.16 5.01 8.3 1.01-1.08L15.8 6.99l2.83-4.06c.3-.5.1-1.3-.1-2.12-.1-.4-.6-.72-1-.63z"/>
  </symbol>
  <symbol id="run" viewBox="0 0 15 17">
    <path d="M9.56128 4.24996C10.1663 4.24996 10.6567 3.6157 10.6567 2.83329C10.6567 2.05089 10.1663 1.41663 9.56128 1.41663C8.95628 1.41663 8.46582 2.05089 8.46582 2.83329C8.46582 3.6157 8.95628 4.24996 9.56128 4.24996Z"/>
    <path d="M8.89155 7.76969C9.01729 8.01199 9.19764 8.19839 9.40812 8.30356C9.6186 8.40874 9.84901 8.42761 10.0681 8.3576L11.8843 7.77039L11.6198 6.39623L9.80352 6.98344L9.0482 5.51931C8.88682 5.20663 8.63637 4.98917 8.35148 4.91439L6.24491 4.36898C6.00924 4.30781 5.76456 4.34869 5.54865 4.48529C5.33274 4.62189 5.15761 4.84662 5.05031 5.12477L4.14217 7.4736L5.12206 8.10756L6.0302 5.75802L7.10759 6.0371L4.32183 12.0416H1.89319V13.4583H4.32183C4.70414 13.4583 5.064 13.1948 5.26119 12.7705L6.31173 10.5067L9.14295 11.2391L10.1376 15.0988L11.1761 14.6504L10.182 10.7914C10.1206 10.5545 10.0121 10.3427 9.86728 10.1773C9.72246 10.0119 9.5465 9.89879 9.35712 9.84935L7.69256 9.41939L8.66314 7.32698L8.89155 7.76969Z"/>
  </symbol>
  <symbol id="check" viewBox="0 0 11 12">
    <path d="M3.38679 11.1809L0 7.5V7V6C0 6.04093 0 5.95907 0 6C0 5.78516 6.95735e-05 5.5 6.95735e-05 5.5V4.5L3.37736 7.75615C3.49314 7.87756 3.68161 7.87614 3.79738 7.75474L11.0001 0V2.07271V3C11.0001 3.5 11.0001 3.5 11.0001 3.5L4.80839 10.1208L4.80974 10.1222L3.80681 11.1795C3.69103 11.3009 3.50256 11.3009 3.38679 11.1809Z"/>
  </symbol>
  <symbol id="past" viewBox="0 0 17 29">
    <path d="M15.85.6a1.85 1.85 0 00-2.62 0L.92 13a1.49 1.49 0 000 2.1l12.3 12.4c.73.73 1.9.73 2.63 0 .72-.73.12-1.5-.6-2.23l-6.49-6.5L4.2 14 15.86 2s.71-.69-.01-1.4z"/>
  </symbol>
  <symbol id="next" viewBox="0 0 17 29">
    <path d="M.97 29.11a1.85 1.85 0 001.3.57 1.79 1.79 0 001.32-.57l12.3-12.81a1.54 1.54 0 00.44-1.09 1.59 1.59 0 00-.43-1.08L3.59 1.3a1.8 1.8 0 00-2.62 0c-.73.76.44 2.07 1.17 2.82l10.6 11.08L1.57 26.87c-.71.74-1.33 1.5-.6 2.24z"/>
  </symbol>
  <symbol id="cross" viewBox="0 0 9 9">
    <path d="M7.875 1.125l-6.75 6.75M1.125 1.125l6.75 6.75" stroke="#AFB0B5" stroke-linecap="round" stroke-linejoin="round"/>
  </symbol>
  <symbol id="arrow" viewBox="0 0 8 11">
    <path d="M3.65 10.35c.2.2.5.2.7 0l3.19-3.18a.5.5 0 10-.71-.7L4 9.28 1.17 6.46a.5.5 0 10-.7.71l3.18 3.18zM3.5 0v10h1V0h-1z"/>
  </symbol>
</svg>
